# xmcd
#
# Track frame offsets:
#	150
#	20883
#	45150
#	62335
#	83508
#	108218
#	141488
#	166298
#	188625
#	204835
#
# Disc length: 2917
#
# Revision: 3
# Processed by: cddbd v1.5.1PL0 Copyright (c) Steve Scherf et al.
# Submitted via: audiograbber 1.82.02
# Normalized: r2:DSETVAR2
#
DISCID=750b630a
DTITLE=Various Artist - Jerry Masucci Presents...Super Salsa Singers Vol. III
DYEAR=1980
DGENRE=Salsa
TTITLE0=Hector Lavoe - El Cantante
TTITLE1=Willie Colon - Sin Poderte Hablar
TTITLE2=Celia Cruz - Cucala
TTITLE3=Pete "El Conde" Rodriguez - Mi Negra Mariana
TTITLE4=Adalberto Santiago - Ay Caray
TTITLE5=Ruben Blades - Pedro Navaja
TTITLE6=Ismael Miranda - Senor Sereno
TTITLE7=Cheo Feliciano - Los Entierros
TTITLE8=Santos Colon - Mirame Mas
TTITLE9=Ismael Rivera - Si Te Cojo
EXTD=
EXTT0=
EXTT1=
EXTT2=
EXTT3=
EXTT4=
EXTT5=
EXTT6=
EXTT7=
EXTT8=
EXTT9=
PLAYORDER=
